<svg width="50" height="49" viewBox="0 0 50 49" fill="none" xmlns="http://www.w3.org/2000/svg">
<path d="M9.14362 11.8027L10.6763 18.8356C13.5731 17.7136 17.3939 16.1149 20.5033 15.9829C20.848 15.9682 21.068 15.9755 21.222 16.3275L20.254 24.5558L14.2185 26.8586C14.7611 27.9659 15.3772 29.022 16.0885 30.034C17.0566 31.42 20.4887 34.8008 20.892 35.7982C21.728 37.8296 22.1534 41.9731 22.8427 44.4152C23.1801 45.5959 24.0455 47.3046 24.2288 48.3239C24.2801 48.5953 24.3021 48.94 23.9868 48.9986C23.6421 49.0646 20.3933 46.7179 19.8506 46.3145C11.2044 39.8903 4.83881 30.5914 1.92738 20.207C0.974014 16.8116 -0.368031 10.6807 0.0939846 7.26324C0.14532 6.8819 0.14532 6.78656 0.423996 6.49322C0.585334 6.31721 3.24009 4.93116 3.70211 4.70382C9.06295 2.10774 19.6526 -0.569019 25.5415 0.10567C25.8715 0.142338 26.1062 0.127671 26.3042 0.450348L22.7841 8.81796C18.0979 9.17731 13.5511 10.2333 9.13629 11.7954L9.14362 11.8027Z" fill="#0C6CC2"/>
<path d="M48.9281 6.55931C49.1921 6.83799 49.2288 7.54934 49.2215 7.93802C49.0308 21.6298 41.9172 35.9156 31.4742 44.5912C30.8875 45.0826 27.8001 47.5833 27.3234 47.444C26.5387 46.608 26.3187 45.2513 25.974 44.1512C25.6293 43.0512 24.5366 39.7071 24.808 38.8051C32.9703 32.1315 38.9251 22.4365 39.9298 11.8102C35.581 10.1014 31.0049 9.39741 26.3994 8.71538C25.8934 8.03336 29.1275 1.81449 29.5968 0.707115L30.0148 0.450439C36.6517 1.16913 43.1419 3.25187 48.9281 6.55198V6.55931Z" fill="#0C6CC2"/>
</svg>
