<svg width="96" height="96" viewBox="0 0 96 96" fill="none" xmlns="http://www.w3.org/2000/svg">
<path d="M95.4005 28.0817V67.3956C95.2781 67.4734 95.3226 67.6737 95.3226 67.8072C95.2893 70.7885 95.4895 73.8589 95.089 76.8068C94.1101 84.0155 90.2165 89.7557 83.7087 92.9373C83.5752 92.3922 83.464 91.836 83.3194 91.2797C82.0845 86.6409 80.2824 81.6905 77.657 77.6634C77.5569 77.5077 77.39 77.1628 77.1675 77.2296C82.9411 71.5338 82.9634 64.6367 83.1191 57.0164C83.2415 50.8535 83.2415 44.6461 83.1191 38.4831C82.9856 31.5081 83.0301 24.5998 78.102 19.0821C71.9724 12.2183 64.2187 12.4741 55.6862 12.3073C48.2773 12.1627 40.5013 12.0292 33.1258 12.4519C21.8901 13.0971 14.1698 18.7038 12.7792 30.2955C12.045 36.4362 12.312 43.7227 12.3231 49.9747C8.14031 50.8757 4.10213 52.2997 0.197451 54.0017C0.152953 54.2576 0.208575 54.5246 0.197451 54.7804C0.197451 54.8805 0.119579 54.9473 0.119579 54.9584V23.9434C-0.147407 14.5099 3.56816 5.94408 12.49 2.00603C17.3291 -0.118743 21.8123 0.148244 26.9518 0.092622C41.458 -0.0853692 55.9866 0.0592487 70.504 0.0036264C78.0019 -0.0853692 85.2216 1.43868 90.261 7.34576C95.3004 13.2528 95.623 20.417 95.3226 27.8259L95.4005 28.0817Z" fill="#0C6CC2"/>
<path d="M12.3123 49.9633C12.3234 56.6602 11.8451 65.6042 14.5594 71.7338C18.2416 80.0327 25.784 82.569 34.3165 82.9473C41.0245 83.2476 48.1219 83.0585 54.8745 83.014C62.8952 82.9584 71.0383 83.2587 77.1679 77.207C77.3903 77.1403 77.5572 77.4852 77.6573 77.6409C80.2938 81.6791 82.0849 86.6183 83.3197 91.2572C83.4643 91.8023 83.5755 92.3585 83.709 92.9148C81.0948 94.1941 78.4583 94.7948 75.5548 95.0729L72.618 95.2954H23.637C17.5297 95.2175 11.7116 93.9827 7.07268 89.7888C2.1223 85.3279 0.309013 79.532 0.186644 72.9686C0.164395 71.4891 0.208892 70.0095 0.186644 68.5411C0.186644 68.4187 0.231141 68.2074 0.108772 68.1295C0.108772 63.8688 -0.135966 59.1632 0.108772 54.947C0.108772 54.947 0.175519 54.858 0.186644 54.769C0.208892 54.5132 0.15327 54.2462 0.186644 53.9903C4.09133 52.2883 8.1295 50.8643 12.3123 49.9633Z" fill="#0C6CC2"/>
<path d="M0.186881 72.9689C0.0645117 72.891 0.109009 72.6908 0.109009 72.5573C0.0867606 71.0777 0.109009 69.5982 0.109009 68.1298C0.231378 68.2076 0.186881 68.4079 0.186881 68.5414C0.198005 70.0209 0.153507 71.5005 0.186881 72.9689Z" fill="#0C6CC2"/>
<path d="M73.6639 71.4894C72.6293 70.2434 71.7282 68.8862 70.6825 67.6626C68.0461 64.5588 64.9646 61.8556 61.7496 59.3637C69.5145 50.0748 66.0993 35.8355 55.0749 31.0075C43.5389 25.957 30.3342 34.0111 29.5888 46.515C29.5554 47.0712 29.6111 47.6385 29.5888 48.1948C29.5888 48.128 29.4553 47.9611 29.5109 47.8277C25.94 47.5829 22.3468 47.6719 18.787 48.0501C18.8203 51.2206 18.7425 54.4022 18.787 57.5838C18.6646 57.5059 18.7091 57.3057 18.7091 57.1722C18.6312 50.8313 18.6535 44.4347 18.787 38.116C18.9205 31.7973 18.6424 25.9014 23.8152 21.7742C27.6087 18.7372 32.7482 18.8373 37.3648 18.7261C44.0617 18.5592 50.8365 18.5815 57.5334 18.7261C62.3837 18.8373 68.1239 18.6482 72.0175 22.03C76.4561 25.9014 76.5563 31.0631 76.7009 36.5475C76.9011 43.8451 76.9011 51.432 76.7009 58.7296C76.5785 63.2906 76.6119 67.7627 73.6528 71.5005L73.6639 71.4894ZM66.1994 24.533C60.7262 25.0781 61.5049 33.466 67.0671 32.9988C72.6293 32.5315 71.9396 23.9657 66.1994 24.533Z" fill="#0C6CC2"/>
<path d="M18.7983 57.5617C18.7538 54.3913 18.8317 51.2097 18.7983 48.0281C22.3581 47.6498 25.9513 47.5608 29.5223 47.8056C29.4555 47.9502 29.589 48.1171 29.6002 48.1727C29.8226 50.1751 29.8894 51.6213 30.568 53.5681C35.1846 66.8062 52.6834 70.1991 61.7609 59.3416C64.9759 61.8335 68.0574 64.5368 70.6939 67.6405C71.7396 68.8753 72.6407 70.2325 73.6752 71.4673C69.8484 76.3064 64.7979 76.3398 59.0466 76.5289C51.4041 76.7737 43.6837 76.7625 36.0523 76.5289C31.8584 76.4066 27.4086 76.2953 23.9601 73.5809C18.8539 69.565 18.8984 63.5244 18.8206 57.5395L18.7983 57.5617Z" fill="#0C6CC2"/>
<path d="M56.3206 55.7709C56.0759 55.5706 55.7533 55.3815 55.4752 55.2369C50.814 52.8451 45.9415 50.9651 40.8243 49.7859L36.0741 48.9182C35.3399 41.0977 41.8588 34.7234 49.7127 35.9805C59.0127 37.4823 62.8507 48.9182 56.3206 55.7597V55.7709Z" fill="#0C6CC2"/>
<path d="M56.3205 55.7708C49.4233 63.0016 36.9973 58.8856 36.074 48.9181L40.8241 49.7858C45.9525 50.965 50.8139 52.845 55.475 55.2368C55.7531 55.3814 56.0757 55.5705 56.3205 55.7708Z" fill="#0C6CC2"/>
</svg>
