<svg width="30" height="9" viewBox="0 0 30 9" fill="none" xmlns="http://www.w3.org/2000/svg">
<path d="M1.7432 1.00513V4.39439L4.89219 1.00513H6.87566L4.07939 4.23081L7.06991 8.74982H5.08645L2.85761 5.55482C2.72981 5.52415 2.68892 5.63661 2.61735 5.70306C2.51 5.80019 1.7432 6.60278 1.7432 6.66924V8.74982H0V1.01024H1.7432V1.00513Z" fill="#0C6CC2"/>
<path d="M23.5306 1.00511C23.5 1.10224 23.6278 1.2147 23.6278 1.24538V3.37197C23.6278 3.37197 23.3875 3.72981 23.6738 3.61224C23.8271 3.55089 24.0674 3.27996 24.3026 3.17772C25.2227 2.7892 26.5467 2.96301 27.1551 3.81161C27.2726 3.97519 27.5998 4.76755 27.5998 4.9158V8.73958H26.0509V5.49857C26.0509 5.12028 25.6726 4.45572 25.2841 4.33303C22.8354 3.57134 23.914 7.57405 23.5358 8.73958H21.9868V1H23.5358L23.5306 1.00511Z" fill="#0C6CC2"/>
<path d="M11.1339 5.1662C11.323 4.21536 10.3364 3.91375 9.57983 4.14379C9.2271 4.25115 9.15553 4.63455 9.00217 4.72656C8.77724 4.86459 7.85708 4.76746 7.54525 4.72656C7.31521 4.59365 7.83663 3.76039 7.98488 3.60703C8.81814 2.74821 10.9856 2.68687 11.9416 3.3361C13.1276 4.14379 12.5346 5.74385 12.693 6.94006C12.7697 7.52283 13.148 7.15477 13.2503 7.44615L13.2656 8.64236C12.7544 8.59635 11.8291 8.82128 11.5173 8.31008C11.415 8.14139 11.4917 7.80399 11.2821 7.86534C11.2003 7.8909 11.1901 8.08004 11.093 8.16183C9.69229 9.36827 6.85002 8.70371 7.42256 6.5311C7.56059 6.00457 7.96443 5.6365 8.45008 5.43202C8.60344 5.36556 9.2271 5.16108 9.33957 5.16108H11.1288L11.1339 5.1662ZM11.1339 6.22949H9.53382C9.11975 6.22949 8.65456 7.23145 9.31912 7.51261C10.2035 7.88579 11.2515 7.211 11.1339 6.22949Z" fill="#0C6CC2"/>
<path d="M21.3016 4.7778H19.8958C19.8242 4.7778 19.5175 4.02633 18.7303 4.00077C17.943 3.97521 17.2427 4.76246 18.0044 5.02317C18.9603 5.35034 21.1125 5.05896 21.3732 6.49543C21.9048 9.39906 16.1027 9.56775 16.072 6.81238H17.4778C17.5596 6.81238 17.7079 7.23156 17.8203 7.33891C18.4696 7.95236 20.4786 7.46672 19.7067 6.71014C19.1443 6.15804 16.4196 6.67947 16.1743 5.11519C15.7244 2.24224 21.138 2.12978 21.3016 4.78291V4.7778Z" fill="#0C6CC2"/>
<path d="M15.3973 1.00513H13.8484V8.74471H15.3973V1.00513Z" fill="#0C6CC2"/>
<path d="M29.8236 3.03455H28.1775V8.74466H29.8236V3.03455Z" fill="#0C6CC2"/>
<circle cx="29" cy="1" r="1" fill="#0C6CC2"/>
</svg>
